<?xml version="1.0" encoding="UTF-8"?>
<svg xmlns="http://www.w3.org/2000/svg" xmlns:xlink="http://www.w3.org/1999/xlink" width="1080" height="1920" viewBox="0 0 1080 1920">
<defs>
<g>
<g id="glyph-0-0">
<path d="M 1.980469 -2.253906 L 1.980469 -3.589844 L 2.402344 -3.589844 L 2.402344 0 L 1.980469 0 L 1.980469 -0.324219 C 1.910156 -0.195312 1.8125 -0.101562 1.695312 -0.0351562 C 1.578125 0.03125 1.441406 0.0664062 1.289062 0.0664062 C 0.976562 0.0664062 0.730469 -0.0546875 0.550781 -0.296875 C 0.371094 -0.539062 0.285156 -0.871094 0.285156 -1.296875 C 0.285156 -1.71875 0.375 -2.046875 0.554688 -2.285156 C 0.734375 -2.523438 0.976562 -2.644531 1.289062 -2.644531 C 1.445312 -2.644531 1.582031 -2.613281 1.699219 -2.542969 C 1.816406 -2.476562 1.910156 -2.378906 1.980469 -2.253906 Z M 0.730469 -1.289062 C 0.730469 -0.960938 0.785156 -0.710938 0.886719 -0.542969 C 0.992188 -0.375 1.148438 -0.292969 1.351562 -0.292969 C 1.554688 -0.292969 1.710938 -0.378906 1.816406 -0.546875 C 1.925781 -0.714844 1.980469 -0.964844 1.980469 -1.289062 C 1.980469 -1.617188 1.925781 -1.863281 1.816406 -2.03125 C 1.710938 -2.199219 1.554688 -2.285156 1.351562 -2.285156 C 1.148438 -2.285156 0.992188 -2.203125 0.886719 -2.035156 C 0.78125 -1.867188 0.730469 -1.617188 0.730469 -1.289062 Z "/>
</g>
<g id="glyph-0-1">
<path d="M 2.582031 -1.503906 L 2.582031 -1.296875 L 0.746094 -1.296875 L 0.746094 -1.28125 C 0.734375 -0.929688 0.800781 -0.675781 0.945312 -0.523438 C 1.09375 -0.371094 1.300781 -0.292969 1.566406 -0.292969 C 1.703125 -0.292969 1.84375 -0.3125 1.992188 -0.359375 C 2.140625 -0.402344 2.296875 -0.464844 2.464844 -0.554688 L 2.464844 -0.132812 C 2.304688 -0.0664062 2.148438 -0.015625 2 0.015625 C 1.847656 0.0507812 1.703125 0.0664062 1.5625 0.0664062 C 1.160156 0.0664062 0.847656 -0.0546875 0.621094 -0.292969 C 0.394531 -0.535156 0.285156 -0.867188 0.285156 -1.289062 C 0.285156 -1.699219 0.394531 -2.03125 0.617188 -2.277344 C 0.835938 -2.523438 1.132812 -2.644531 1.5 -2.644531 C 1.828125 -2.644531 2.089844 -2.535156 2.28125 -2.3125 C 2.46875 -2.089844 2.570312 -1.820312 2.582031 -1.503906 Z M 2.160156 -1.628906 C 2.140625 -1.808594 2.074219 -1.960938 1.964844 -2.089844 C 1.851562 -2.21875 1.691406 -2.285156 1.484375 -2.285156 C 1.277344 -2.285156 1.109375 -2.21875 0.976562 -2.082031 C 0.84375 -1.945312 0.773438 -1.792969 0.761719 -1.625 Z "/>
</g>
<g id="glyph-0-2">
<path d="M 1.558594 -2.320312 C 1.609375 -2.429688 1.675781 -2.511719 1.757812 -2.566406 C 1.839844 -2.617188 1.9375 -2.644531 2.050781 -2.644531 C 2.257812 -2.644531 2.402344 -2.566406 2.488281 -2.402344 C 2.574219 -2.242188 2.617188 -1.941406 2.617188 -1.496094 L 2.617188 0 L 2.230469 0 L 2.230469 -1.476562 C 2.230469 -1.84375 2.210938 -2.070312 2.167969 -2.15625 C 2.128906 -2.246094 2.054688 -2.289062 1.945312 -2.289062 C 1.824219 -2.289062 1.738281 -2.242188 1.695312 -2.148438 C 1.648438 -2.054688 1.625 -1.832031 1.625 -1.476562 L 1.625 0 L 1.238281 0 L 1.238281 -1.476562 C 1.238281 -1.847656 1.214844 -2.074219 1.171875 -2.160156 C 1.128906 -2.246094 1.050781 -2.289062 0.9375 -2.289062 C 0.824219 -2.289062 0.746094 -2.242188 0.703125 -2.148438 C 0.660156 -2.054688 0.636719 -1.832031 0.636719 -1.476562 L 0.636719 0 L 0.25 0 L 0.25 -2.582031 L 0.636719 -2.582031 L 0.636719 -2.359375 C 0.6875 -2.453125 0.75 -2.523438 0.828125 -2.574219 C 0.902344 -2.621094 0.988281 -2.644531 1.085938 -2.644531 C 1.203125 -2.644531 1.300781 -2.617188 1.378906 -2.5625 C 1.457031 -2.511719 1.515625 -2.429688 1.558594 -2.320312 Z "/>
</g>
<g id="glyph-0-3">
<path d="M 1.421875 -2.285156 C 1.207031 -2.285156 1.042969 -2.203125 0.929688 -2.035156 C 0.820312 -1.867188 0.765625 -1.617188 0.765625 -1.289062 C 0.765625 -0.960938 0.820312 -0.714844 0.929688 -0.546875 C 1.042969 -0.378906 1.207031 -0.292969 1.421875 -0.292969 C 1.636719 -0.292969 1.800781 -0.378906 1.910156 -0.546875 C 2.023438 -0.714844 2.078125 -0.960938 2.078125 -1.289062 C 2.078125 -1.617188 2.023438 -1.867188 1.910156 -2.035156 C 1.800781 -2.203125 1.636719 -2.285156 1.421875 -2.285156 Z M 1.421875 -2.644531 C 1.777344 -2.644531 2.050781 -2.527344 2.242188 -2.296875 C 2.433594 -2.066406 2.527344 -1.730469 2.527344 -1.289062 C 2.527344 -0.847656 2.433594 -0.511719 2.242188 -0.28125 C 2.054688 -0.0507812 1.78125 0.0664062 1.421875 0.0664062 C 1.0625 0.0664062 0.789062 -0.046875 0.597656 -0.28125 C 0.410156 -0.511719 0.316406 -0.847656 0.316406 -1.289062 C 0.316406 -1.730469 0.410156 -2.066406 0.597656 -2.296875 C 0.789062 -2.527344 1.0625 -2.644531 1.421875 -2.644531 Z "/>
</g>
<g id="glyph-0-4">
<path d="M 0.898438 -0.929688 L 1.707031 -0.929688 L 1.707031 0 L 0.898438 0 Z "/>
</g>
<g id="glyph-0-5">
<path d="M 0.863281 -0.324219 L 0.863281 0.980469 L 0.4375 0.980469 L 0.4375 -2.582031 L 0.863281 -2.582031 L 0.863281 -2.253906 C 0.933594 -2.382812 1.03125 -2.476562 1.148438 -2.542969 C 1.265625 -2.609375 1.402344 -2.644531 1.554688 -2.644531 C 1.867188 -2.644531 2.109375 -2.523438 2.289062 -2.28125 C 2.464844 -2.039062 2.554688 -1.707031 2.554688 -1.28125 C 2.554688 -0.859375 2.464844 -0.53125 2.289062 -0.292969 C 2.109375 -0.0546875 1.863281 0.0664062 1.554688 0.0664062 C 1.398438 0.0664062 1.261719 0.0351562 1.144531 -0.0351562 C 1.027344 -0.101562 0.933594 -0.199219 0.863281 -0.324219 Z M 2.109375 -1.289062 C 2.109375 -1.617188 2.058594 -1.867188 1.953125 -2.035156 C 1.851562 -2.203125 1.695312 -2.285156 1.492188 -2.285156 C 1.285156 -2.285156 1.128906 -2.199219 1.023438 -2.03125 C 0.917969 -1.863281 0.863281 -1.617188 0.863281 -1.289062 C 0.863281 -0.964844 0.917969 -0.714844 1.023438 -0.546875 C 1.128906 -0.378906 1.285156 -0.292969 1.492188 -0.292969 C 1.695312 -0.292969 1.851562 -0.375 1.953125 -0.542969 C 2.058594 -0.710938 2.109375 -0.960938 2.109375 -1.289062 Z "/>
</g>
<g id="glyph-0-6">
<path d="M 1.980469 -0.832031 C 1.910156 -0.652344 1.816406 -0.414062 1.707031 -0.121094 C 1.554688 0.285156 1.453125 0.535156 1.402344 0.621094 C 1.332031 0.742188 1.242188 0.832031 1.136719 0.890625 C 1.03125 0.953125 0.90625 0.980469 0.765625 0.980469 L 0.425781 0.980469 L 0.425781 0.628906 L 0.675781 0.628906 C 0.800781 0.628906 0.898438 0.589844 0.96875 0.519531 C 1.039062 0.445312 1.128906 0.261719 1.238281 -0.0429688 L 0.238281 -2.582031 L 0.691406 -2.582031 L 1.453125 -0.5625 L 2.210938 -2.582031 L 2.660156 -2.582031 Z "/>
</g>
</g>
</defs>
<g fill="rgb(73.333333%, 73.333333%, 73.333333%)" fill-opacity="1">
<use xlink:href="#glyph-0-0" x="30" y="24.383789"/>
<use xlink:href="#glyph-0-1" x="33" y="24.383789"/>
<use xlink:href="#glyph-0-2" x="36" y="24.383789"/>
<use xlink:href="#glyph-0-3" x="39" y="24.383789"/>
<use xlink:href="#glyph-0-4" x="42" y="24.383789"/>
<use xlink:href="#glyph-0-5" x="45" y="24.383789"/>
<use xlink:href="#glyph-0-6" x="48" y="24.383789"/>
</g>
</svg>
