<?xml version="1.0" encoding="UTF-8"?>
<svg xmlns="http://www.w3.org/2000/svg" xmlns:xlink="http://www.w3.org/1999/xlink" width="1080" height="1920" viewBox="0 0 1080 1920">
<defs>
<g>
<g id="glyph-0-0">
<path d="M 2.21875 -2.261719 C 2.570312 -2.316406 2.851562 -2.394531 3.0625 -2.492188 C 3.277344 -2.589844 3.382812 -2.695312 3.382812 -2.808594 C 3.382812 -2.855469 3.359375 -2.894531 3.3125 -2.925781 C 3.265625 -2.957031 3.207031 -2.96875 3.132812 -2.96875 C 2.933594 -2.96875 2.765625 -2.917969 2.625 -2.808594 C 2.488281 -2.703125 2.351562 -2.519531 2.21875 -2.261719 Z M 1.105469 -0.644531 C 1.03125 -0.710938 0.964844 -0.742188 0.902344 -0.742188 C 0.792969 -0.742188 0.695312 -0.707031 0.605469 -0.628906 C 0.515625 -0.554688 0.472656 -0.472656 0.472656 -0.378906 C 0.472656 -0.277344 0.539062 -0.226562 0.671875 -0.226562 C 0.875 -0.226562 1.023438 -0.363281 1.105469 -0.644531 Z M 1.117188 -2.136719 C 1.324219 -2.148438 1.527344 -2.160156 1.722656 -2.179688 C 1.910156 -2.535156 2.113281 -2.792969 2.332031 -2.957031 C 2.554688 -3.121094 2.808594 -3.199219 3.101562 -3.199219 C 3.472656 -3.199219 3.65625 -3.105469 3.65625 -2.914062 C 3.65625 -2.707031 3.523438 -2.535156 3.253906 -2.394531 C 3.039062 -2.28125 2.671875 -2.175781 2.152344 -2.074219 L 1.558594 -0.601562 C 1.820312 -0.378906 2.050781 -0.265625 2.257812 -0.265625 C 2.546875 -0.265625 2.886719 -0.375 3.277344 -0.59375 L 3.363281 -0.394531 C 2.921875 -0.132812 2.519531 -0.00390625 2.160156 -0.00390625 C 2.03125 -0.00390625 1.910156 -0.0234375 1.796875 -0.0703125 C 1.6875 -0.117188 1.546875 -0.199219 1.382812 -0.320312 C 1.25 -0.195312 1.132812 -0.113281 1.035156 -0.0703125 C 0.9375 -0.0273438 0.808594 -0.0078125 0.65625 -0.0078125 C 0.367188 -0.0078125 0.222656 -0.101562 0.222656 -0.292969 C 0.222656 -0.398438 0.253906 -0.5 0.3125 -0.59375 C 0.375 -0.695312 0.472656 -0.78125 0.605469 -0.859375 C 0.742188 -0.9375 0.863281 -0.972656 0.976562 -0.972656 C 1.039062 -0.972656 1.121094 -0.960938 1.230469 -0.9375 L 1.660156 -2.007812 C 1.378906 -1.988281 1.199219 -1.980469 1.113281 -1.980469 Z "/>
</g>
<g id="glyph-1-0">
<path d="M 0.253906 -1.394531 C 0.253906 -2.023438 0.441406 -2.578125 0.820312 -3.050781 C 1.050781 -3.34375 1.324219 -3.578125 1.636719 -3.753906 L 1.691406 -3.664062 C 1.398438 -3.433594 1.191406 -3.207031 1.066406 -2.988281 C 0.847656 -2.609375 0.738281 -2.101562 0.738281 -1.464844 C 0.738281 -0.996094 0.78125 -0.605469 0.863281 -0.300781 C 1.007812 0.234375 1.285156 0.636719 1.691406 0.902344 L 1.621094 0.988281 C 1.398438 0.882812 1.15625 0.675781 0.898438 0.363281 C 0.46875 -0.152344 0.253906 -0.738281 0.253906 -1.394531 Z "/>
</g>
<g id="glyph-1-1">
<path d="M 0.296875 -1.972656 C 0.289062 -2.378906 0.378906 -2.792969 0.554688 -3.21875 C 0.652344 -3.414062 0.78125 -3.574219 0.9375 -3.699219 C 1.097656 -3.820312 1.300781 -3.882812 1.542969 -3.886719 C 1.789062 -3.882812 1.992188 -3.820312 2.160156 -3.699219 C 2.320312 -3.574219 2.445312 -3.414062 2.539062 -3.21875 C 2.710938 -2.792969 2.796875 -2.378906 2.792969 -1.972656 C 2.796875 -1.5 2.71875 -1.050781 2.554688 -0.625 C 2.46875 -0.425781 2.34375 -0.265625 2.179688 -0.136719 C 2.015625 -0.0117188 1.804688 0.0507812 1.542969 0.0546875 C 1.289062 0.0507812 1.082031 -0.0117188 0.921875 -0.136719 C 0.757812 -0.265625 0.632812 -0.425781 0.539062 -0.625 C 0.445312 -0.832031 0.382812 -1.050781 0.351562 -1.289062 C 0.3125 -1.519531 0.296875 -1.746094 0.296875 -1.972656 Z M 2.257812 -2.074219 C 2.257812 -2.222656 2.257812 -2.390625 2.25 -2.582031 C 2.238281 -2.773438 2.210938 -2.957031 2.160156 -3.132812 C 2.121094 -3.308594 2.050781 -3.457031 1.949219 -3.574219 C 1.851562 -3.6875 1.714844 -3.746094 1.542969 -3.75 C 1.378906 -3.746094 1.25 -3.6875 1.148438 -3.574219 C 1.054688 -3.457031 0.980469 -3.308594 0.933594 -3.132812 C 0.886719 -2.957031 0.859375 -2.773438 0.847656 -2.582031 C 0.835938 -2.390625 0.828125 -2.222656 0.828125 -2.074219 Z M 0.828125 -1.933594 C 0.828125 -1.746094 0.835938 -1.550781 0.847656 -1.339844 C 0.859375 -1.125 0.886719 -0.921875 0.929688 -0.734375 C 0.972656 -0.546875 1.042969 -0.394531 1.140625 -0.269531 C 1.238281 -0.144531 1.375 -0.0859375 1.542969 -0.0859375 C 1.71875 -0.0859375 1.859375 -0.148438 1.960938 -0.269531 C 2.0625 -0.394531 2.132812 -0.546875 2.171875 -0.734375 C 2.214844 -0.921875 2.242188 -1.125 2.25 -1.339844 C 2.257812 -1.550781 2.257812 -1.746094 2.257812 -1.933594 Z "/>
</g>
<g id="glyph-1-2">
<path d="M 1.582031 -1.367188 C 1.582031 -1.097656 1.546875 -0.84375 1.476562 -0.601562 C 1.40625 -0.363281 1.300781 -0.132812 1.167969 0.078125 C 1.023438 0.304688 0.832031 0.519531 0.59375 0.714844 C 0.4375 0.847656 0.304688 0.9375 0.199219 0.988281 L 0.148438 0.902344 C 0.425781 0.691406 0.628906 0.472656 0.757812 0.253906 C 0.984375 -0.136719 1.097656 -0.65625 1.097656 -1.296875 C 1.097656 -1.816406 1.046875 -2.238281 0.941406 -2.570312 C 0.792969 -3.035156 0.53125 -3.398438 0.148438 -3.664062 L 0.21875 -3.753906 C 0.503906 -3.59375 0.769531 -3.355469 1.015625 -3.03125 C 1.394531 -2.535156 1.582031 -1.980469 1.582031 -1.367188 Z "/>
</g>
</g>
</defs>
<g fill="rgb(32.941176%, 43.137255%, 47.843137%)" fill-opacity="1">
<use xlink:href="#glyph-0-0" x="30" y="24.166992"/>
</g>
<g fill="rgb(32.941176%, 43.137255%, 47.843137%)" fill-opacity="1">
<use xlink:href="#glyph-1-0" x="34" y="24.166992"/>
<use xlink:href="#glyph-1-1" x="36" y="24.166992"/>
<use xlink:href="#glyph-1-2" x="39" y="24.166992"/>
</g>
</svg>
