<?xml version="1.0" encoding="UTF-8"?>
<svg xmlns="http://www.w3.org/2000/svg" xmlns:xlink="http://www.w3.org/1999/xlink" width="1080" height="1920" viewBox="0 0 1080 1920">
<defs>
<g>
<g id="glyph-0-0">
<path d="M 2.183594 -0.109375 C 2.078125 -0.0546875 1.972656 -0.0117188 1.863281 0.015625 C 1.753906 0.0429688 1.636719 0.0585938 1.511719 0.0585938 C 1.121094 0.0585938 0.820312 -0.078125 0.605469 -0.355469 C 0.390625 -0.628906 0.28125 -1.015625 0.28125 -1.515625 C 0.28125 -2.011719 0.390625 -2.398438 0.605469 -2.675781 C 0.824219 -2.953125 1.125 -3.09375 1.511719 -3.09375 C 1.636719 -3.09375 1.75 -3.078125 1.863281 -3.050781 C 1.972656 -3.023438 2.078125 -2.980469 2.183594 -2.925781 L 2.183594 -2.503906 C 2.082031 -2.585938 1.976562 -2.652344 1.859375 -2.695312 C 1.746094 -2.738281 1.628906 -2.757812 1.511719 -2.757812 C 1.246094 -2.757812 1.042969 -2.65625 0.910156 -2.449219 C 0.777344 -2.242188 0.710938 -1.933594 0.710938 -1.515625 C 0.710938 -1.101562 0.777344 -0.789062 0.910156 -0.582031 C 1.042969 -0.378906 1.246094 -0.273438 1.511719 -0.273438 C 1.632812 -0.273438 1.75 -0.296875 1.863281 -0.339844 C 1.976562 -0.382812 2.085938 -0.445312 2.183594 -0.527344 Z "/>
</g>
<g id="glyph-0-1">
<path d="M 1.429688 -1.144531 L 1.304688 -1.144531 C 1.085938 -1.144531 0.921875 -1.105469 0.8125 -1.03125 C 0.699219 -0.953125 0.644531 -0.839844 0.644531 -0.6875 C 0.644531 -0.550781 0.6875 -0.445312 0.769531 -0.367188 C 0.851562 -0.292969 0.964844 -0.253906 1.113281 -0.253906 C 1.320312 -0.253906 1.480469 -0.324219 1.597656 -0.46875 C 1.714844 -0.613281 1.777344 -0.808594 1.777344 -1.0625 L 1.777344 -1.144531 Z M 2.15625 -1.300781 L 2.15625 0 L 1.777344 0 L 1.777344 -0.335938 C 1.699219 -0.203125 1.597656 -0.101562 1.476562 -0.0390625 C 1.355469 0.0273438 1.207031 0.0585938 1.035156 0.0585938 C 0.800781 0.0585938 0.617188 -0.0078125 0.476562 -0.136719 C 0.339844 -0.269531 0.269531 -0.445312 0.269531 -0.664062 C 0.269531 -0.917969 0.355469 -1.109375 0.527344 -1.242188 C 0.695312 -1.375 0.945312 -1.4375 1.277344 -1.4375 L 1.777344 -1.4375 L 1.777344 -1.496094 C 1.777344 -1.679688 1.730469 -1.8125 1.640625 -1.894531 C 1.550781 -1.976562 1.402344 -2.015625 1.203125 -2.015625 C 1.078125 -2.015625 0.949219 -1.996094 0.816406 -1.960938 C 0.6875 -1.925781 0.5625 -1.871094 0.4375 -1.800781 L 0.4375 -2.175781 C 0.574219 -2.226562 0.707031 -2.269531 0.835938 -2.292969 C 0.960938 -2.320312 1.085938 -2.332031 1.203125 -2.332031 C 1.394531 -2.332031 1.554688 -2.304688 1.6875 -2.25 C 1.820312 -2.195312 1.929688 -2.109375 2.011719 -2 C 2.0625 -1.933594 2.101562 -1.847656 2.121094 -1.75 C 2.144531 -1.648438 2.15625 -1.5 2.15625 -1.300781 Z "/>
</g>
<g id="glyph-0-2">
<path d="M 2.351562 -1.808594 C 2.269531 -1.871094 2.1875 -1.917969 2.105469 -1.945312 C 2.023438 -1.972656 1.933594 -1.988281 1.832031 -1.988281 C 1.597656 -1.988281 1.421875 -1.914062 1.296875 -1.769531 C 1.175781 -1.621094 1.113281 -1.410156 1.113281 -1.132812 L 1.113281 0 L 0.738281 0 L 0.738281 -2.277344 L 1.113281 -2.277344 L 1.113281 -1.832031 C 1.175781 -1.996094 1.269531 -2.117188 1.402344 -2.203125 C 1.53125 -2.289062 1.683594 -2.332031 1.863281 -2.332031 C 1.953125 -2.332031 2.039062 -2.320312 2.121094 -2.300781 C 2.199219 -2.277344 2.277344 -2.238281 2.351562 -2.191406 Z "/>
</g>
<g id="glyph-0-3">
<path d="M 1.253906 -2.015625 C 1.0625 -2.015625 0.917969 -1.941406 0.820312 -1.792969 C 0.722656 -1.644531 0.675781 -1.425781 0.675781 -1.136719 C 0.675781 -0.847656 0.722656 -0.628906 0.820312 -0.480469 C 0.917969 -0.332031 1.0625 -0.257812 1.253906 -0.257812 C 1.445312 -0.257812 1.589844 -0.332031 1.6875 -0.480469 C 1.785156 -0.628906 1.832031 -0.847656 1.832031 -1.136719 C 1.832031 -1.425781 1.785156 -1.648438 1.6875 -1.792969 C 1.589844 -1.941406 1.445312 -2.015625 1.253906 -2.015625 Z M 1.253906 -2.332031 C 1.570312 -2.332031 1.8125 -2.230469 1.980469 -2.027344 C 2.148438 -1.820312 2.230469 -1.523438 2.230469 -1.136719 C 2.230469 -0.746094 2.148438 -0.453125 1.980469 -0.246094 C 1.8125 -0.0429688 1.570312 0.0585938 1.253906 0.0585938 C 0.9375 0.0585938 0.695312 -0.0429688 0.527344 -0.246094 C 0.363281 -0.449219 0.277344 -0.75 0.277344 -1.136719 C 0.277344 -1.523438 0.363281 -1.820312 0.527344 -2.027344 C 0.695312 -2.230469 0.9375 -2.332031 1.253906 -2.332031 Z "/>
</g>
<g id="glyph-0-4">
<path d="M 1.464844 -0.824219 C 1.464844 -0.65625 1.492188 -0.527344 1.554688 -0.445312 C 1.617188 -0.359375 1.707031 -0.316406 1.828125 -0.316406 L 2.265625 -0.316406 L 2.265625 0 L 1.792969 0 C 1.570312 0 1.394531 -0.0703125 1.273438 -0.214844 C 1.148438 -0.359375 1.089844 -0.5625 1.089844 -0.824219 L 1.089844 -2.886719 L 0.488281 -2.886719 L 0.488281 -3.179688 L 1.464844 -3.179688 Z "/>
</g>
<g id="glyph-0-5">
<rect x="0" y="0" width="0" height="0" mask="url(#mask-0)"/>
</g>
<g id="glyph-0-6">
<path d="M 1.464844 -2.398438 L 1.464844 -1.496094 L 2.371094 -1.496094 L 2.371094 -1.152344 L 1.464844 -1.152344 L 1.464844 -0.25 L 1.125 -0.25 L 1.125 -1.152344 L 0.21875 -1.152344 L 0.21875 -1.496094 L 1.125 -1.496094 L 1.125 -2.398438 Z "/>
</g>
<g id="glyph-0-7">
<path d="M 0.757812 -0.347656 L 2.15625 -0.347656 L 2.15625 0 L 0.308594 0 L 0.308594 -0.347656 C 0.5625 -0.613281 0.785156 -0.847656 0.972656 -1.054688 C 1.164062 -1.257812 1.296875 -1.402344 1.367188 -1.488281 C 1.503906 -1.652344 1.59375 -1.785156 1.640625 -1.890625 C 1.6875 -1.992188 1.714844 -2.097656 1.714844 -2.203125 C 1.714844 -2.371094 1.664062 -2.507812 1.5625 -2.601562 C 1.464844 -2.699219 1.328125 -2.746094 1.152344 -2.746094 C 1.03125 -2.746094 0.902344 -2.722656 0.765625 -2.679688 C 0.628906 -2.636719 0.484375 -2.566406 0.332031 -2.476562 L 0.332031 -2.890625 C 0.472656 -2.957031 0.609375 -3.007812 0.746094 -3.042969 C 0.878906 -3.074219 1.015625 -3.09375 1.144531 -3.09375 C 1.441406 -3.09375 1.683594 -3.015625 1.863281 -2.855469 C 2.042969 -2.699219 2.132812 -2.492188 2.132812 -2.234375 C 2.132812 -2.105469 2.105469 -1.972656 2.042969 -1.84375 C 1.984375 -1.714844 1.886719 -1.570312 1.75 -1.410156 C 1.675781 -1.324219 1.5625 -1.203125 1.417969 -1.046875 C 1.273438 -0.890625 1.054688 -0.65625 0.757812 -0.347656 Z "/>
</g>
</g>
<image id="source-232" x="0" y="0" width="0" height="0"/>
<mask id="mask-0">
<use xlink:href="#source-232"/>
</mask>
</defs>
<g fill="rgb(69.019608%, 72.156863%, 81.568627%)" fill-opacity="1">
<use xlink:href="#glyph-0-0" x="30" y="23.868164"/>
<use xlink:href="#glyph-0-1" x="33" y="23.868164"/>
<use xlink:href="#glyph-0-2" x="36" y="23.868164"/>
<use xlink:href="#glyph-0-3" x="39" y="23.868164"/>
<use xlink:href="#glyph-0-4" x="42" y="23.868164"/>
<use xlink:href="#glyph-0-5" x="45" y="23.868164"/>
<use xlink:href="#glyph-0-6" x="48" y="23.868164"/>
<use xlink:href="#glyph-0-7" x="51" y="23.868164"/>
</g>
</svg>
